<svg xmlns="http://www.w3.org/2000/svg" viewBox="106 15.587 288 42.355" enable-background="new 106 15.587 288 42.355"><path fill="#e53022" d="M253.081 45.361c-1.522 1.12-4.442 3.298-5.965 4.377-.617-.095-1.422-.495-1.896-1.323.385-1.955 9.451-14.433 10.542-16.074.295-1.434-2.392-2.68-4.245-3.736-2.07.206-10.54 5.744-10.54 5.744s.839-1.393 1.668-2.921c.006-1.583-3.813-2.777-3.813-2.777s-7.356 5.503-11.396 6.931c-.466-1.054-1.121-1.959-1.884-2.405.924-.333 2.114-.779 2.114-.779s-3.198-3.574-5.04-4.494c-2.409.492-13.61 5.624-14.753 13.667-1.527 1.609-3.067 3.338-4.793 4.317-.738-.183-2.537-2.243-2.716-2.593.176-2.314 12.43-17.898 12.43-17.898s3.673.467 5.562.234c1.754-1.237 3.264-2.532 3.264-2.532l-6.455-.396s3.25-3.57 3.911-4.163c-.611-.836-3.832-1.793-5.441-2.952-2.406 3.421-3.467 4.894-4.86 6.73-1.755.201-34.385-1.778-34.385-1.778l2.79 4.115s27.103.554 29.339.61c-5.058 6.972-13.9 19.447-18.104 21.529-.843.18-2.352-2.337-2.942-3.988 10.676-10.209 11.23-10.014 12.468-11.636.004-.887-4.614-2.526-5.552-2.328-.682.78-6.005 6.46-8.284 8.887l-.122-.5s-.729-5.205.292-8.049c-1.897-.486-5.312-.743-6.869-.336-.541.689-2.31 3.264-4.4 6.292-2.072 2.899-6.721 9.568-8.173 10.487-.462-.113-1.831-1.879-1.942-3.383-.066-.865 1.125-2.016 2.289-3.304l4.2-4.212c-.991-1.33-4.111-3.338-4.631-3.419l-1.89 2.411-1.59-5.184c-1.004-.515-3.766-.446-6.718.977-5.546 2.663-11.339 9.122-9.848 15.604 2.3 3.522 5.608 5.101 7.397 5.362 2.312-1.175 3.711-2.546 4.897-3.446l.572-.457 1.542-1.546c.922 2.324 3.885 5.48 5.463 5.697 2.836-2.156 9.153-10.622 10.966-12.644l-.004-.009c1.605-2.079 2.989-3.69 3.683-4.073-.323 2.993.521 6.635.521 6.635l.174.563-.273.203s-7.87 8.139-8.858 9.391c-.124 1.271 2.312 2.315 3.158 2.671 1.742-1.99 7.576-7.361 7.576-7.361l.106-.09c.921 1.859 3.096 4.615 5.322 5.089 1.562-.331 8.178-5.858 9.549-6.465 1.303 1.902 4.4 6.09 6.326 6.355 2.836-2.158 4.008-4.566 5.822-6.587 2.118 2.663 5.214 5.66 8.793 6.176 2.89-1.248 9.51-5.152 10.666-12.731l-.009-.055c2.675-.4 7.465-3.842 9.505-4.722-3.164 4.669-8.521 12.282-9.457 13.673.434 1.996 1.508 3.307 3.514 4.248 4.762-8.049 12.622-13.901 15.073-16.029.484-.42 1.439-.106 1.439-.106s-7.188 11.542-7.815 13.875c.444 2.148 4.561 4.115 6.087 4.485 2.918-.72 8.608-3.84 9.911-6.259-.478-.297-2.55-1.454-3.268-1.595zm-102.638 1.847c-.479-.238-.823-.217-.974-.822-.837-3.347 3.869-10.496 8.523-12.236.997-.374 3.188-.751 3.588.598-.096 1.577-9.425 11.79-11.137 12.46zm65.082-.071l-.694-.182c-.696-.181-1.865-1.19-2.267-2.804.982-4.692 10.175-10.381 10.175-10.381l-.912 2.576s.687 1.372 1.32 2.471c-.374 2.092-5.689 7.004-7.622 8.32zm-79.645-10.466c-.955-.896-2.568-3.699-2.568-3.699s2.349-4.112 7.419-6.725c-2.564-.281-22.966 4.054-26.076 10.718 2.606 2.976 18.936 1.711 24.308 3.047 4.072 2.988 4.781 8.126 4.781 8.126s-2.099 10.464-27.401 9.231c-6.076-1.408-10.029-5.885-10.029-5.885s-.518-4.001-.222-5.9c1.735-.544 3.32-.643 4.773-.5.43 2.571 1.076 5.085 2.012 5.466.936.381 8.722 2.814 15.946.237 7.224-2.576 10.026-4.676 8.066-6.778-1.959-2.106-17.478-.139-22.2-1.433-2.194-1.251-4.96-3-6.257-8.755 3.803-5.521 17.116-13.291 35.593-13.016 2.303 1.132 4.191 3.846 5.903 6.191-3.18 2.472-11.78 7.669-14.048 9.675zm256.665 5.851c-6.213 4.222-10.319 5.653-12.839 5.936-1.138-.251-2.681-1.187-3.548-1.975 4.246-1.311 12.091-6.036 12.171-11.089-.704-1.537-1.837-2.954-2.562-3.778l-.017.008c-.948-1.117-2.028-2.142-2.947-2.564-10.22 2.843-12.407 11.778-12.457 16.32-2.583.938-5.392 1.895-6.715 2.196-.616-.095-1.424-.496-1.899-1.321.382-1.957 7.917-12.101 9.007-13.744.29-1.433-2.399-2.676-4.254-3.729-2.071.211-10.529 5.767-10.529 5.767s.837-1.395 1.662-2.926c.003-1.583-3.817-2.77-3.817-2.77s-2.639 1.275-6.676 2.71l.832 3.027-.01-.054c1.7-.12 2.8-.487 4.627-1.262-2.378 3.523-6.681 9.769-9.056 13.23-2.36-1.221-4.937-2.88-5.255-3.413 1.072-1.009 6.45-2.951 6.423-8.423-1.017-1.966-3.072-3.829-4.658-4.674-2.284.731-5.192 3.029-6.18 3.482.156-.401.25-.797.302-1.186-.987-1.62-2.804-3.234-4.383-4.185-.698.18-7.939 3.584-12.161 4.038-1.034-1.242-3.013-3.368-4.237-3.893-2.448.452-6.636 2.776-9.877 5.957-2.077.684-4.639 1.371-7.252 1.666 1.112-2.447 4.198-8.833 12.51-17.384-1.404-.011-2.79-.084-6.716.102-8.356 8.293-12.762 18.865-12.762 18.865l-6.396 1.05-1.316-.978c1.825-3.616 6.896-12.762 10.961-17.64 0 0-3.991-.283-5.233-.077-3.032 3.507-8.782 12.545-10.919 15.611-10.522-3.844-17.21-.594-19.42 1.828.159 2.921.551 4.624 2.541 6.064 2.221.711 12.208-.229 12.208-.229s-3.67 6.306-4.546 8.224c.644 2.377 2.91 4.69 4.844 5.142.451-2.509 6.346-13.971 6.813-14.187.471-.214 3.626-.721 3.626-.721s2.224 2.651 2.642 4.444c-1.925 6.587-2.333 7.363-2.666 11.73 3.766.445 7.45.09 7.45.09s.533-10.292 4.797-17.752c2.059-.341 3.811-.743 5.292-1.15-.755 1.529-1.152 3.128-1.005 4.724 2.505 4.445 4.378 6.354 6.425 7.361 3.048.023 12.479-3.9 14.503-12.771-.704-1.537-1.836-2.955-2.563-3.78 3.207.457 7.1.018 9.329-.555-2.927 5.729-6.64 12.611-7.344 14.002.679 1.926 1.732 3.009 3.839 3.701 3.25-7.472 6.883-11.84 9.445-15.302 1.004-.453 3.625-2.348 4.951-2.213l-.013.06c1.012 1.484.7 3.156-5.135 7.458l-.033.036c2.601 3.186 6.013 8.155 12.869 9.676l2.719-1.726c.613-1.055 1.452-2.407 2.48-3.774 4.343-5.493 9.316-8.936 11.291-10.656.483-.421 1.438-.107 1.438-.107s-5.658 9.203-6.28 11.54c.448 2.147 4.57 4.105 6.097 4.475 1.764-.439 5.231-1.55 8.18-2.711 2.847 2.205 6.292 3.656 7.769 4.04 8.091-.394 15.088-8.662 15.088-8.662l-1.455-1.199zm-118.597-3.154c-3.896.926-9.264 1.449-10.917.792-.521-.518-.563-1.096-.506-1.643 2.667-3.568 12.373-.651 12.373-.651l-.95 1.502zm12.477 4.365c-.468-1.039-1.37-2.28-1.37-2.28l2.475-.563c-.001-.001-.687 1.716-1.105 2.843zm19.541 3.445s-1.786-1.121-2.276-2.797c1.985-7.97 10.192-9.774 10.192-9.774l-.698 1.742s.357 1.66.985 3.417c-1.387 4.031-8.203 7.412-8.203 7.412zm70.73-5.569c1.258-3.199 3.501-5.389 5.561-6.765.299.67.656 1.512.948 2.326-.302 3.065-5.026 5.231-7.094 6.036.139-.434.329-.951.585-1.597z"/></svg>